<?xml version="1.0" standalone="no"?>
<!DOCTYPE svg PUBLIC "-//W3C//DTD SVG 20010904//EN"
 "http://www.w3.org/TR/2001/REC-SVG-20010904/DTD/svg10.dtd">
<svg version="1.0" xmlns="http://www.w3.org/2000/svg"
 width="957.000000pt" height="957.000000pt" viewBox="0 0 957.000000 957.000000"
 preserveAspectRatio="xMidYMid meet">
<metadata>
Created by potrace 1.11, written by Peter Selinger 2001-2013
</metadata>
<g transform="translate(0.000000,957.000000) scale(0.100000,-0.100000)"
fill="#000000" stroke="none">
<path d="M6910 9558 c-107 -22 -148 -43 -218 -109 -101 -96 -181 -146 -266
-168 -27 -7 -63 -19 -79 -28 -58 -30 -117 -113 -117 -165 0 -15 -5 -18 -20
-13 -34 11 -88 -13 -105 -47 -20 -42 -19 -70 6 -129 12 -27 19 -52 17 -55 -6
-5 -29 -10 -88 -20 -51 -9 -87 -33 -106 -72 -22 -47 -6 -99 43 -142 l36 -32
-24 -19 c-13 -10 -36 -24 -51 -31 -16 -7 -28 -16 -28 -19 0 -9 -102 -50 -126
-50 -10 -1 -54 1 -97 4 l-77 5 -81 -49 c-139 -83 -158 -116 -195 -339 -12 -72
-53 -221 -67 -240 -7 -11 -33 -41 -58 -68 -55 -61 -87 -104 -99 -138 -8 -19
-15 -24 -29 -19 -11 3 -40 1 -65 -6 -39 -10 -54 -8 -107 10 -35 12 -76 21 -91
21 -95 0 -149 -76 -124 -175 7 -27 71 -135 87 -145 20 -14 11 -33 -21 -45 -61
-21 -88 -77 -69 -145 3 -9 -11 -22 -37 -35 -77 -37 -106 -111 -74 -182 9 -21
47 -69 83 -108 37 -38 67 -73 67 -77 0 -5 -8 -8 -17 -8 -36 -1 -73 -46 -96
-117 -2 -9 -1 -9 -79 19 -63 23 -112 19 -145 -10 -65 -56 -166 -221 -178 -292
-9 -51 33 -111 86 -123 23 -6 26 -11 24 -52 -1 -25 -5 -49 -9 -52 -19 -19
-176 -18 -322 2 -39 6 -60 3 -88 -10 -51 -24 -64 -70 -46 -167 l13 -73 -69
-60 c-118 -103 -182 -171 -199 -211 -12 -27 -18 -70 -19 -139 -1 -88 -3 -101
-21 -112 -13 -8 -69 -12 -170 -12 -83 0 -163 -4 -178 -10 -15 -6 -50 -32 -78
-58 l-51 -47 -31 18 c-158 93 -231 94 -307 3 -24 -28 -70 -128 -70 -152 0 -20
-46 -158 -64 -192 -9 -18 -28 -40 -42 -49 -23 -16 -29 -15 -112 12 -48 16 -91
29 -97 29 -5 0 -16 4 -22 8 -23 14 -91 -12 -113 -43 -24 -33 -46 -128 -55
-240 -9 -94 -13 -135 -15 -135 -1 0 -3 -11 -4 -25 -2 -49 -55 -97 -144 -131
-31 -12 -68 -23 -82 -25 -14 -1 -41 -6 -60 -10 -19 -4 -41 -8 -48 -10 -36 -7
-104 -62 -121 -99 -30 -64 -8 -128 52 -148 7 -2 4 -15 -10 -39 -22 -38 -30
-95 -19 -138 3 -14 8 -34 10 -45 10 -61 54 -136 86 -147 8 -2 8 -11 0 -33 -18
-44 -20 -116 -5 -145 13 -23 32 -44 138 -145 20 -19 37 -40 37 -45 0 -5 -9
-43 -20 -84 -30 -108 -31 -114 -36 -191 -7 -99 9 -147 68 -206 27 -27 53 -49
57 -49 4 0 18 -9 31 -20 13 -11 66 -50 117 -87 98 -69 182 -153 184 -182 0 -9
3 -27 6 -41 5 -22 7 -135 4 -380 -1 -164 19 -217 104 -271 30 -19 54 -36 55
-39 0 -3 -23 -18 -51 -34 -110 -61 -147 -117 -134 -199 10 -60 49 -123 82
-133 61 -17 88 -6 155 62 44 44 59 54 88 54 19 0 50 4 68 9 31 9 33 9 25 -12
-12 -37 -8 -102 9 -128 8 -14 34 -33 57 -44 22 -11 41 -23 41 -27 0 -4 -15
-14 -34 -22 -40 -17 -58 -45 -58 -92 0 -38 41 -115 79 -147 43 -37 46 -62 17
-123 -27 -56 -33 -103 -20 -142 6 -17 1 -27 -22 -47 -35 -30 -46 -63 -32 -101
23 -58 76 -81 165 -69 85 11 94 13 103 19 5 3 24 8 43 11 19 4 39 8 44 9 6 1
15 5 22 9 8 5 19 -6 32 -32 41 -80 109 -95 167 -37 l34 34 20 -37 c51 -101
109 -130 179 -90 l38 21 44 -48 c181 -199 265 -284 282 -284 5 0 8 -3 4 -6
-10 -10 63 -56 117 -75 54 -19 78 -14 125 26 26 23 66 99 76 148 4 18 10 36
13 42 3 5 7 16 7 25 4 34 28 136 37 153 9 18 11 18 33 -3 26 -24 88 -30 124
-11 40 22 68 83 89 195 12 60 23 110 24 112 2 1 26 6 53 9 28 4 52 9 55 10 7
4 117 15 193 20 48 2 59 0 67 -15 17 -32 11 -82 -20 -182 -47 -151 -46 -200 7
-246 39 -33 109 -34 174 -2 24 11 43 20 44 20 1 0 16 -13 34 -29 18 -16 44
-31 59 -34 39 -8 90 17 103 50 12 29 14 187 5 296 -3 34 -2 67 2 73 7 11 29
20 71 29 12 3 31 7 44 10 39 9 130 25 139 25 5 0 14 -12 20 -27 30 -70 77 -90
138 -58 32 16 37 10 47 -50 11 -70 49 -158 76 -179 42 -31 99 -28 136 8 17 16
32 28 34 25 2 -2 24 -35 49 -74 40 -60 83 -101 111 -104 4 -1 8 -1 10 -2 1 0
9 -2 18 -4 9 -1 50 -25 90 -52 98 -66 129 -81 175 -86 53 -6 79 8 100 54 15
36 16 62 9 297 -16 504 -13 576 30 687 15 39 28 77 30 85 2 8 4 15 5 15 4 0
22 86 24 115 2 33 -30 109 -54 130 -28 24 -19 38 56 90 186 126 200 193 94
445 -7 17 -14 35 -15 40 -2 6 -10 36 -20 68 -10 34 -14 69 -10 87 4 17 35 62
72 101 36 39 72 88 81 108 34 80 17 163 -54 246 l-43 51 36 64 c42 78 59 106
81 142 60 95 122 201 122 208 0 5 4 10 8 12 9 3 140 227 143 243 0 6 9 21 19
35 10 14 27 52 38 86 19 58 18 117 -3 184 -3 10 -7 27 -9 37 -2 10 -12 45 -22
78 -10 33 -19 62 -19 65 -1 3 -5 19 -9 35 -4 17 -10 37 -13 45 -4 8 -7 18 -8
23 -2 4 -4 10 -5 15 -1 4 -3 12 -5 17 -1 6 -3 12 -4 15 -2 3 -4 12 -6 20 -2 8
-7 26 -10 40 -3 14 -8 36 -11 50 -3 14 -9 43 -14 65 -15 66 -11 115 13 158 31
57 54 84 193 222 130 129 141 149 129 232 -4 21 -8 47 -9 58 -6 36 11 52 60
59 64 8 110 45 125 99 11 40 9 86 -9 227 -4 30 -7 98 -7 151 1 84 4 102 29
151 15 30 38 66 50 79 80 89 107 141 107 205 0 43 -7 67 -36 121 -20 38 -44
75 -53 84 -9 9 -26 29 -36 43 -11 15 -30 39 -43 54 -36 42 -37 58 -6 98 38 50
39 120 3 159 -28 31 -90 65 -117 65 -43 1 -45 13 -17 91 15 41 30 76 33 79 3
3 28 50 54 105 67 138 70 211 11 266 -22 21 -36 24 -100 25 -40 0 -76 2 -78 5
-3 3 1 29 9 59 8 30 16 71 18 90 3 19 6 37 7 40 6 16 -4 80 -17 107 -15 32
-80 73 -116 73 -24 0 -21 17 10 54 35 41 73 124 73 159 0 38 -30 93 -79 147
-58 63 -69 106 -48 184 10 33 18 66 20 71 1 6 5 15 8 20 32 54 38 146 14 214
-8 22 -12 41 -8 41 3 0 1 6 -5 13 -16 19 -52 190 -52 243 0 43 6 74 27 159 23
93 9 159 -45 213 -21 21 -56 46 -77 56 -152 69 -165 79 -172 135 -6 41 19 195
41 259 16 46 13 106 -7 127 -33 32 -101 41 -187 23z"/>
</g>
</svg>
